<?xml version="1.0" standalone="no"?>
<!DOCTYPE svg PUBLIC "-//W3C//DTD SVG 20010904//EN"
 "http://www.w3.org/TR/2001/REC-SVG-20010904/DTD/svg10.dtd">
<svg version="1.0" xmlns="http://www.w3.org/2000/svg"
 width="898.000000pt" height="372.000000pt" viewBox="0 0 898.000000 372.000000"
 preserveAspectRatio="xMidYMid meet">

<g transform="translate(0.000000,372.000000) scale(0.100000,-0.100000)"
fill="#000000" stroke="none">
<path d="M1430 2377 c-361 -123 -468 -583 -200 -858 87 -89 233 -149 360 -149
126 0 270 60 360 150 92 92 159 249 160 373 l0 37 -255 0 -255 0 0 -90 0 -90
136 0 135 0 -23 -41 c-26 -47 -62 -80 -122 -112 -56 -30 -203 -32 -256 -3 -71
38 -109 77 -142 144 -30 60 -33 75 -33 152 1 73 5 93 30 144 86 172 294 220
456 105 17 -12 43 -39 58 -60 l28 -38 82 60 c94 69 94 68 6 154 -57 56 -142
105 -224 129 -82 24 -220 21 -301 -7z"/>
<path d="M2597 2385 c-84 -23 -160 -68 -227 -135 -106 -106 -150 -212 -150
-365 0 -257 184 -470 439 -507 265 -39 521 139 576 399 20 92 19 146 -5 239
-46 180 -187 322 -365 369 -71 18 -202 18 -268 0z m253 -206 c61 -27 134 -101
161 -163 29 -67 31 -170 5 -246 -26 -74 -110 -158 -184 -184 -76 -26 -171 -19
-242 20 -175 95 -214 344 -78 498 87 100 217 128 338 75z"/>
<path d="M2636 2160 c-43 -13 -102 -57 -129 -98 -30 -44 -50 -105 -44 -129 3
-12 5 -10 6 7 2 44 47 125 87 159 57 46 133 67 199 52 68 -15 128 -60 155
-117 33 -67 26 -159 -17 -211 -43 -54 -88 -77 -148 -77 -120 0 -202 111 -160
220 54 143 269 112 264 -38 -1 -29 -2 -28 -9 11 -10 62 -54 101 -116 101 -76
0 -124 -49 -124 -127 0 -104 124 -169 210 -110 93 62 97 195 8 258 -49 35
-142 39 -188 7 -167 -114 -76 -361 128 -346 177 13 259 239 134 372 -59 63
-170 91 -256 66z"/>
<path d="M2462 1865 c0 -16 2 -22 5 -12 2 9 2 23 0 30 -3 6 -5 -1 -5 -18z"/>
<path d="M2470 1820 c0 -17 36 -80 46 -80 4 0 2 6 -4 13 -7 7 -18 29 -26 48
-9 19 -15 27 -16 19z"/>
<path d="M2520 1726 c0 -2 8 -10 18 -17 15 -13 16 -12 3 4 -13 16 -21 21 -21
13z"/>
<path d="M3530 2374 c-114 -52 -174 -143 -173 -259 0 -40 7 -86 16 -106 37
-88 137 -159 242 -174 109 -16 162 -57 171 -132 14 -115 -135 -175 -235 -95
l-38 31 -82 -60 c-44 -33 -81 -64 -81 -69 0 -18 119 -98 173 -117 35 -12 81
-18 142 -18 78 0 97 4 146 28 64 31 126 93 160 159 33 64 38 185 10 258 -11
30 -34 72 -51 92 -40 48 -136 95 -224 108 -95 15 -130 31 -145 69 -11 25 -11
37 -1 61 23 56 89 69 158 30 l40 -22 76 57 c42 32 76 61 76 66 0 16 -91 81
-140 100 -74 28 -170 26 -240 -7z"/>
<path d="M5551 2384 c-316 -85 -470 -435 -323 -734 36 -73 151 -188 224 -223
353 -169 748 76 748 465 0 227 -162 435 -384 494 -66 18 -196 17 -265 -2z
m253 -204 c58 -24 124 -91 156 -155 36 -74 35 -198 -1 -275 -68 -144 -226
-214 -373 -164 -64 22 -147 100 -177 166 -17 41 -23 72 -23 134 -1 73 2 87 34
150 75 148 236 208 384 144z"/>
<path d="M4150 1890 l0 -500 100 0 100 0 2 218 3 217 228 3 227 2 0 -220 0
-220 105 0 105 0 0 500 0 500 -105 0 -105 0 0 -190 0 -190 -230 0 -230 0 0
190 0 190 -100 0 -100 0 0 -500z"/>
<path d="M6350 1890 l0 -500 105 0 105 0 0 85 0 85 88 0 c212 1 343 72 420
228 36 75 37 79 37 192 0 110 -1 118 -33 182 -57 115 -169 197 -302 218 -36 5
-145 10 -242 10 l-178 0 0 -500z m401 300 c96 -27 150 -103 151 -212 0 -111
-48 -186 -141 -217 -19 -6 -72 -11 -117 -11 l-84 0 0 225 0 225 78 0 c42 0 93
-5 113 -10z"/>
<path d="M7260 1890 l0 -500 105 0 105 0 0 500 0 500 -105 0 -105 0 0 -500z"/>
<path d="M7590 2295 l0 -95 120 0 120 0 0 -405 0 -405 105 0 105 0 0 405 0
405 130 0 130 0 0 95 0 95 -355 0 -355 0 0 -95z"/>
</g>
</svg>
