<svg xmlns="http://www.w3.org/2000/svg" version="1.0" preserveAspectRatio="xMidYMid meet" viewBox="111.19 114.06 722.91 172.94">

<g transform="translate(0.000000,368.000000) scale(0.100000,-0.100000)" fill="#000000" stroke="none">
<path d="M1590 2517 c-111 -33 -204 -89 -285 -172 -127 -129 -184 -259 -192 -435 -6 -133 12 -226 68 -340 34 -69 58 -101 128 -170 132 -131 274 -191 451 -192 117 0 188 16 299 68 79 37 106 57 175 126 132 133 193 264 203 441 l6 97 -332 0 -331 0 0 -125 0 -125 175 0 176 0 -17 -32 c-30 -57 -102 -124 -167 -154 -56 -26 -72 -29 -172 -29 -100 0 -115 2 -167 28 -74 36 -141 105 -181 186 -31 63 -32 71 -32 186 0 116 1 123 33 187 42 85 129 168 209 198 157 60 350 4 451 -131 20 -27 41 -48 47 -47 14 4 204 141 205 148 0 3 -20 31 -45 62 -86 110 -228 200 -365 232 -97 23 -248 20 -340 -7z"/>
<path d="M7495 2530 c-66 -14 -115 -72 -115 -137 0 -38 33 -89 72 -113 64 -39 152 -16 195 49 66 99 -31 227 -152 201z"/>
<path d="M4310 1875 l0 -645 125 0 125 0 0 240 c0 195 3 248 15 278 34 80 107 126 198 126 48 -1 63 -5 95 -31 72 -58 77 -76 80 -360 l3 -253 126 0 126 0 -6 263 c-5 278 -11 316 -62 417 -36 69 -108 138 -183 173 -114 54 -277 48 -362 -13 l-30 -21 0 235 0 236 -125 0 -125 0 0 -645z"/>
<path d="M7999 2307 l-114 -83 -3 -57 -3 -57 -64 0 -65 0 0 -115 0 -115 64 0 64 0 4 -192 c3 -185 4 -195 30 -250 32 -69 99 -138 165 -172 61 -30 157 -56 212 -56 l41 0 0 119 c0 115 -1 119 -22 125 -13 3 -32 6 -42 6 -35 0 -101 39 -119 69 -14 24 -17 55 -17 190 l0 161 105 0 106 0 -3 113 -3 112 -102 3 -103 3 0 139 c0 77 -4 140 -8 140 -4 0 -60 -37 -123 -83z"/>
<path d="M2875 2103 c-192 -69 -315 -241 -315 -438 1 -207 152 -398 353 -445 54 -12 150 -12 204 0 226 52 393 292 355 510 -27 150 -126 282 -262 348 -70 34 -83 37 -180 39 -81 3 -116 -1 -155 -14z m247 -256 c21 -11 50 -38 65 -60 25 -36 28 -49 28 -122 0 -74 -3 -86 -29 -123 -42 -60 -99 -85 -186 -80 -59 3 -74 8 -107 34 -49 40 -72 81 -79 141 -9 73 11 131 61 179 68 66 164 78 247 31z"/>
<path d="M3765 2107 c-82 -33 -153 -96 -181 -163 -23 -54 -18 -147 10 -202 45 -88 117 -137 238 -162 31 -6 61 -16 66 -23 37 -46 9 -102 -51 -100 -20 1 -49 9 -65 18 l-29 17 -99 -72 c-54 -40 -101 -75 -103 -77 -12 -9 61 -68 118 -95 149 -71 343 -40 448 74 37 39 66 118 67 178 2 162 -86 259 -267 293 -82 15 -107 29 -107 56 0 41 65 56 108 25 22 -15 26 -13 103 42 44 32 83 62 86 67 9 15 -68 86 -121 112 -40 20 -64 25 -120 24 -39 0 -84 -6 -101 -12z"/>
<path d="M5635 2103 c-192 -69 -315 -241 -315 -438 1 -212 155 -402 363 -447 28 -6 87 -8 131 -5 258 18 463 275 416 524 -28 149 -132 283 -267 345 -60 28 -80 32 -173 35 -82 3 -116 -1 -155 -14z m247 -75 c254 -117 275 -461 36 -594 -47 -26 -63 -29 -138 -29 -98 0 -152 21 -215 82 -53 51 -77 111 -77 192 -1 83 24 144 82 200 166 161 457 14 411 -208 -15 -74 -52 -125 -114 -156 -68 -34 -134 -34 -196 0 -117 64 -142 214 -50 306 84 84 208 71 277 -31 20 -29 23 -44 20 -93 -2 -31 -1 -52 4 -45 17 27 8 112 -15 150 -111 182 -377 93 -377 -126 0 -133 111 -238 250 -238 242 0 364 298 199 486 -101 116 -263 146 -405 76 -75 -37 -124 -90 -168 -180 -28 -58 -31 -75 -31 -155 0 -81 3 -97 32 -158 21 -44 53 -88 90 -125 58 -57 47 -55 -15 2 -153 142 -163 397 -20 552 83 90 167 126 288 121 55 -3 91 -10 132 -29z m-256 -736 c-5 -4 -66 26 -66 33 0 3 16 -3 35 -12 19 -9 33 -18 31 -21z"/>
<path d="M6733 2106 c-23 -8 -58 -23 -77 -36 l-36 -22 0 31 0 32 -122 -3 -123 -3 -3 -647 -2 -648 125 0 125 0 0 235 0 235 58 -32 c54 -31 63 -33 152 -32 73 0 108 6 150 22 63 25 140 86 190 149 103 135 119 347 38 507 -27 52 -110 139 -162 170 -90 53 -221 70 -313 42z m185 -262 c81 -48 116 -175 73 -269 -47 -104 -178 -150 -277 -97 -12 6 -35 27 -52 46 -56 65 -67 158 -28 243 50 106 175 141 284 77z"/>
<path d="M7400 1670 l0 -440 125 0 125 0 -2 438 -3 437 -122 3 -123 3 0 -441z"/>
</g>
</svg>